<svg width="13" height="12" viewBox="0 0 13 12" fill="none" xmlns="http://www.w3.org/2000/svg">
<path d="M0.191406 0.765625C0 0.601562 0 0.328125 0.191406 0.164062C0.355469 0 0.628906 0 0.792969 0.164062L6.17969 5.52344L11.5664 0.164062C11.7305 0 12.0039 0 12.168 0.164062C12.3594 0.328125 12.3594 0.601562 12.168 0.765625L6.48047 6.45312C6.31641 6.64453 6.04297 6.64453 5.87891 6.45312L0.191406 0.765625ZM0.191406 6.01562C0 5.85156 0 5.57812 0.191406 5.41406C0.355469 5.25 0.628906 5.25 0.792969 5.41406L6.17969 10.7734L11.5664 5.41406C11.7305 5.25 12.0039 5.25 12.168 5.41406C12.3594 5.57812 12.3594 5.85156 12.168 6.01562L6.48047 11.7031C6.31641 11.8945 6.04297 11.8945 5.87891 11.7031L0.191406 6.01562Z" fill="white"/>
</svg>
