<svg width="16" height="16" viewBox="0 0 16 16" fill="none" xmlns="http://www.w3.org/2000/svg">
<path d="M9.9375 13.125C10.5312 11.9375 10.9375 10.2812 11 8.5H5C5.0625 10.2812 5.5 11.9375 6.09375 13.125C6.78125 14.5312 7.53125 15 8 15C8.5 15 9.21875 14.5312 9.9375 13.125ZM11 7.5C10.9375 5.71875 10.5312 4.09375 9.9375 2.875C9.21875 1.46875 8.5 1 8 1C7.53125 1 6.78125 1.46875 6.09375 2.875C5.5 4.09375 5.0625 5.71875 5 7.5H11ZM12 8.5C11.9062 10.9688 11.1875 13.2812 10.1562 14.6562C12.8125 13.8125 14.7812 11.4062 14.9688 8.5H12ZM14.9688 7.5C14.7812 4.625 12.8125 2.21875 10.1562 1.34375C11.1875 2.71875 11.9062 5.03125 12 7.5H14.9688ZM4 7.5C4.09375 5.03125 4.8125 2.71875 5.84375 1.34375C3.1875 2.21875 1.21875 4.625 1.03125 7.5H4ZM1.03125 8.5C1.21875 11.4062 3.1875 13.8125 5.84375 14.6562C4.8125 13.2812 4.09375 10.9688 4 8.5H1.03125ZM8 16C3.59375 16 0 12.4062 0 8C0 3.59375 3.59375 0 8 0C12.4062 0 16 3.59375 16 8C16 12.4062 12.4062 16 8 16Z" fill="white"/>
</svg>
